<svg width="105" height="77" viewBox="0 0 105 77" fill="none" xmlns="http://www.w3.org/2000/svg">
<g clip-path="url(#clip0_137_1007)">
<path d="M37.2565 45.7828V51.1958C37.2565 52.2805 37.8028 52.8524 39.0755 52.8524H42.5136V44.1257H39.0755C37.8028 44.1257 37.2565 44.6965 37.2565 45.7833M10.9898 51.4695C10.9898 52.5033 11.6802 53.0731 12.9174 53.0731H16.1176V49.8694H12.9194C11.6802 49.8694 10.9919 50.4402 10.9919 51.4695M28.1083 24.5539C27.2729 24.5025 26.5952 24.3958 25.812 24.3958C24.5753 24.4004 23.3515 24.6514 22.2106 25.1344L3.21529 32.7923C1.4937 33.4776 0.5 34.4283 0.5 36.8046V63L48.5108 76.2552C49.7179 76.629 50.9597 76.8765 52.2167 76.9939C53.2504 77.0508 54.2642 76.6906 55.036 75.9924L74.7085 60.096C76.2753 58.8265 77.1138 57.6141 77.1138 55.1305V29.0419L28.1083 24.5539ZM19.3031 55.7599H12.6429C9.69534 55.7599 7.75107 53.9935 7.75107 51.4695C7.75107 48.9454 9.69534 47.1816 12.6429 47.1816H16.1379V45.7828C16.1379 44.696 15.5916 44.1252 14.3189 44.1252H8.97151V42.3948C8.95412 42.2358 8.97228 42.0748 9.02464 41.9239C9.077 41.773 9.16221 41.6359 9.27398 41.5228C9.38575 41.4097 9.52122 41.3234 9.67037 41.2704C9.81951 41.2174 9.97852 41.1991 10.1356 41.2167H14.7734C17.6474 41.2167 19.3031 42.7053 19.3031 45.618V55.7599ZM31.9274 54.5818C31.9449 54.7408 31.9268 54.9018 31.8745 55.0528C31.8221 55.2037 31.7369 55.3409 31.6251 55.454C31.5133 55.5671 31.3778 55.6534 31.2286 55.7063C31.0794 55.7593 30.9204 55.7776 30.7633 55.7599H26.8164C23.9403 55.7599 22.2862 54.2682 22.2862 51.3611V46.408H30.0541V48.1395C30.0715 48.2986 30.0533 48.4597 30.0007 48.6108C29.9482 48.7619 29.8627 48.899 29.7507 49.0121C29.6386 49.1251 29.5028 49.2112 29.3534 49.2639C29.2039 49.3166 29.0447 49.3346 28.8875 49.3165H25.4504V51.1958C25.4504 52.2805 25.9957 52.8524 27.2694 52.8524H31.9259L31.9274 54.5818ZM31.9274 41.7141C31.9451 41.8731 31.9271 42.0342 31.8749 42.1853C31.8226 42.3363 31.7374 42.4735 31.6256 42.5867C31.5137 42.6999 31.3781 42.7861 31.2289 42.839C31.0796 42.8919 30.9204 42.9101 30.7633 42.8922H22.2857V41.1622C22.2683 41.0032 22.2865 40.8423 22.3388 40.6914C22.3912 40.5405 22.4764 40.4034 22.5882 40.2903C22.6999 40.1771 22.8354 40.0909 22.9845 40.0379C23.1337 39.9849 23.2927 39.9666 23.4498 39.9841H31.9274V41.7141ZM45.6793 55.7599H38.62C35.747 55.7599 34.0913 54.2682 34.0913 51.3611V45.6185C34.0913 42.7079 35.7464 41.2172 38.62 41.2172H42.5131V38.6772C42.4956 38.5182 42.5137 38.3572 42.566 38.2062C42.6184 38.0552 42.7036 37.9181 42.8154 37.805C42.9272 37.6919 43.0627 37.6056 43.2119 37.5527C43.361 37.4997 43.5201 37.4814 43.6772 37.4991H45.6788L45.6793 55.7599ZM48.6807 54.0849H57.1598C57.317 54.0674 57.4762 54.0859 57.6253 54.1391C57.7745 54.1923 57.91 54.2788 58.0216 54.3922C58.1332 54.5057 58.2182 54.6431 58.2702 54.7942C58.3222 54.9454 58.3398 55.1065 58.3219 55.2656V56.9955H49.8469C49.6894 57.0132 49.53 56.9948 49.3805 56.9417C49.231 56.8886 49.0952 56.8022 48.9832 56.6888C48.8712 56.5755 48.7858 56.438 48.7333 56.2868C48.6809 56.1355 48.6627 55.9742 48.6802 55.8148L48.6807 54.0849ZM58.3219 42.9456C58.3393 43.1048 58.321 43.2659 58.2685 43.417C58.2159 43.5681 58.1305 43.7053 58.0184 43.8184C57.9064 43.9316 57.7706 44.0178 57.6212 44.0706C57.4718 44.1234 57.3125 44.1416 57.1552 44.1237H53.6644C52.3907 44.1237 51.8449 44.6945 51.8449 45.7812V47.6595H56.4476V49.3894C56.465 49.5484 56.4469 49.7093 56.3945 49.8603C56.3421 50.0112 56.2569 50.1483 56.1452 50.2614C56.0334 50.3745 55.8979 50.4608 55.7488 50.5138C55.5996 50.5667 55.4406 50.5851 55.2835 50.5675H48.6807V45.6185C48.6807 42.7079 50.3358 41.2172 53.2104 41.2172H58.3224L58.3219 42.9456ZM64.8344 55.7578H60.359V54.0274C60.3414 53.8685 60.3594 53.7076 60.4117 53.5567C60.4639 53.4058 60.549 53.2687 60.6608 53.1557C60.7725 53.0426 60.9079 52.9565 61.057 52.9036C61.2061 52.8507 61.3651 52.8325 61.5221 52.8503H64.667C65.8844 52.8503 66.486 52.3709 66.486 51.5069C66.486 50.6589 65.8859 50.2164 65.1215 49.9777L63.194 49.3525C62.3957 49.1127 61.7001 48.6085 61.2188 47.9208C60.7375 47.2331 60.4985 46.4016 60.5401 45.56C60.5401 42.8357 62.5224 41.2151 65.3965 41.2151H69.3261V42.9456C69.3435 43.1048 69.3253 43.266 69.2728 43.4171C69.2203 43.5683 69.1349 43.7055 69.0228 43.8187C68.9108 43.9318 68.775 44.018 68.6255 44.0708C68.476 44.1236 68.3167 44.1417 68.1594 44.1237H65.5608C64.3383 44.1237 63.7383 44.6021 63.7383 45.4681C63.7383 46.314 64.3383 46.7571 65.1017 46.9968L67.0328 47.622C67.8312 47.8615 68.5269 48.3655 69.0083 49.053C69.4898 49.7406 69.729 50.5719 69.6878 51.4135C69.6878 54.1398 67.7054 55.7584 64.8319 55.7584" fill="white"/>
<path d="M23.5031 6.2945L21.7236 1.70273H22.3785L23.8561 5.70673L25.3337 1.70273H25.9693L24.1894 6.2945H23.5031ZM27.1552 4.03019V4.05277C27.1421 4.28425 27.1761 4.516 27.255 4.73366C27.334 4.95132 27.4562 5.15026 27.6143 5.31816C27.7723 5.48605 27.9627 5.61934 28.1736 5.70975C28.3846 5.80017 28.6117 5.84578 28.8408 5.84379C29.402 5.86205 29.9515 5.67875 30.3919 5.32635V5.95724C29.933 6.26462 29.3909 6.4198 28.8408 6.40127C28.2348 6.38448 27.6581 6.13424 27.2283 5.70164C26.7985 5.26903 26.548 4.6867 26.5282 4.07357C26.5083 3.46044 26.7204 2.86276 27.1213 2.40258C27.5222 1.9424 28.0815 1.65443 28.6851 1.59749C29.8299 1.59749 30.5893 2.29204 30.5893 3.5995V4.03019H27.1552ZM29.9648 3.50556C29.9233 2.54614 29.413 2.15549 28.6531 2.15549C28.2896 2.16274 27.9412 2.30384 27.6732 2.55236C27.4051 2.80087 27.2357 3.13976 27.1968 3.50556H29.9648ZM32.3793 6.2945H31.7539V2.12469C32.2591 1.802 32.8441 1.63012 33.4415 1.62881C33.698 1.63038 33.9534 1.6626 34.2024 1.7248V2.34542C33.9425 2.26485 33.6717 2.22589 33.3999 2.22992C33.046 2.21701 32.6948 2.29694 32.3804 2.46195L32.3793 6.2945ZM35.2828 4.03019V4.05277C35.2697 4.28425 35.3036 4.516 35.3826 4.73366C35.4616 4.95132 35.5838 5.15026 35.7418 5.31816C35.8999 5.48605 36.0903 5.61934 36.3012 5.70975C36.5122 5.80017 36.7393 5.84578 36.9684 5.84379C37.5297 5.86254 38.0793 5.67919 38.5195 5.32635V5.95724C38.0606 6.26474 37.5185 6.41994 36.9684 6.40127C36.3624 6.38448 35.7856 6.13424 35.3558 5.70164C34.926 5.26903 34.6756 4.6867 34.6558 4.07357C34.6359 3.46044 34.848 2.86276 35.2489 2.40258C35.6498 1.9424 36.2091 1.65443 36.8127 1.59749C37.9575 1.59749 38.7179 2.29204 38.7179 3.5995V4.03019H35.2828ZM38.0924 3.50556C38.0508 2.54614 37.5416 2.15549 36.7817 2.15549C36.4181 2.1629 36.0695 2.304 35.8012 2.55244C35.5328 2.80088 35.363 3.13967 35.3234 3.50556H38.0924ZM39.8835 1.94605C40.4946 1.72256 41.1385 1.60491 41.7882 1.59801C42.9331 1.59801 43.6295 2.05333 43.6295 3.20063V6.29501H43.0051V3.32589C43.0051 2.38803 42.3492 2.18834 41.737 2.18834C41.3223 2.19218 40.9097 2.24893 40.509 2.35723V6.29552H39.8856L39.8835 1.94605ZM45.7326 6.2945H45.1071V1.70273H45.7326V6.2945ZM54.7975 1.94605C55.4086 1.72248 56.0525 1.60482 56.7023 1.59801C57.8471 1.59801 58.5446 2.05333 58.5446 3.20063V6.29501H57.9202V3.32589C57.9202 2.38803 57.2643 2.18834 56.6495 2.18834C56.2353 2.19199 55.8231 2.24875 55.423 2.35723V6.29552H54.7975V1.94605ZM68.4029 6.2945L66.6235 1.70273H67.2793L68.7569 5.70673L70.2345 1.70273H70.8701L69.0892 6.2945H68.4029ZM74.1266 3.08411C74.1343 2.95815 74.1142 2.83203 74.0678 2.71489C74.0214 2.59774 73.9499 2.49248 73.8584 2.40672C73.7669 2.32096 73.6577 2.25684 73.5388 2.21898C73.4198 2.18113 73.294 2.17049 73.1705 2.18783C72.7024 2.19204 72.2434 2.31922 71.8385 2.55691V1.95786C72.27 1.72222 72.7527 1.59874 73.243 1.59852C74.1586 1.59852 74.7521 2.00919 74.7521 3.0415V6.21288C74.3311 6.32412 73.8978 6.38036 73.4627 6.38022C72.2326 6.38022 71.4119 5.99163 71.4119 5.02194C71.4119 4.11694 72.2331 3.64313 73.6179 3.64313H74.1251L74.1266 3.08411ZM74.1266 4.158H73.659C72.7221 4.158 72.0358 4.41056 72.0358 5.02092C72.0358 5.63127 72.6602 5.85251 73.4931 5.85251C73.7057 5.85081 73.9177 5.83002 74.1266 5.7904V4.158ZM76.2094 1.94605C76.8203 1.72269 77.464 1.60503 78.1136 1.59801C79.2584 1.59801 79.9559 2.05333 79.9559 3.20063V6.29501H79.3305V3.32589C79.3305 2.38803 78.6756 2.18834 78.0624 2.18834C77.6473 2.19194 77.2343 2.24869 76.8333 2.35723V6.29552H76.2089L76.2094 1.94605ZM26.8849 15.167L27.7756 11.7487H29.0731L27.6888 16.5909H26.2508L25.3925 13.4298L24.5262 16.5909H23.1084L21.7252 11.7487H23.0658L23.9454 15.167L24.8584 11.7487H25.9855L26.8849 15.167ZM32.074 11.6388C32.5682 11.6388 33.0514 11.7871 33.4624 12.065C33.8734 12.3429 34.1937 12.7379 34.3829 13.2C34.5721 13.6621 34.6216 14.1706 34.5252 14.6612C34.4288 15.1518 34.1908 15.6025 33.8414 15.9562C33.4919 16.31 33.0466 16.5509 32.5619 16.6485C32.0771 16.7462 31.5746 16.6962 31.1179 16.5048C30.6612 16.3135 30.2709 15.9894 29.9962 15.5735C29.7215 15.1577 29.5749 14.6687 29.5748 14.1685C29.5628 13.8331 29.6192 13.4988 29.7406 13.1864C29.8619 12.874 30.0456 12.5903 30.2801 12.3529C30.5146 12.1156 30.7949 11.9297 31.1035 11.8068C31.4122 11.6839 31.7425 11.6267 32.074 11.6388ZM32.074 12.7681C31.378 12.7681 30.8738 13.2994 30.8738 14.1685C30.9065 14.4017 31.0048 14.6205 31.157 14.7987C31.3091 14.977 31.5087 15.1072 31.7319 15.1738C31.9552 15.2404 32.1927 15.2407 32.416 15.1745C32.6394 15.1083 32.8392 14.9785 32.9917 14.8006C33.1442 14.6226 33.2429 14.404 33.2761 14.1709C33.3092 13.9378 33.2754 13.6999 33.1787 13.4857C33.082 13.2714 32.9264 13.0899 32.7305 12.9627C32.5346 12.8354 32.3067 12.7679 32.074 12.7681ZM35.613 12.0633C36.345 11.7933 37.1166 11.6498 37.8956 11.6388C39.1404 11.6388 39.9459 12.1065 39.9459 13.5494V16.5909H38.6474V13.6367C38.66 13.5224 38.6465 13.4067 38.6079 13.2986C38.5693 13.1904 38.5066 13.0927 38.4247 13.0129C38.3428 12.9332 38.2439 12.8736 38.1357 12.8387C38.0274 12.8038 37.9126 12.7946 37.8003 12.8118C37.4944 12.8129 37.1904 12.8603 36.8984 12.9524V16.5909H35.6115L35.613 12.0633ZM42.5511 16.5909H41.2637V11.7476H42.5511V16.5909ZM43.9455 12.0633C44.6775 11.7933 45.4491 11.6498 46.2281 11.6388C47.4729 11.6388 48.2764 12.1065 48.2764 13.5494V16.5909H46.9789V13.6367C46.9915 13.5223 46.978 13.4065 46.9394 13.2983C46.9007 13.19 46.8379 13.0922 46.7559 13.0125C46.6739 12.9327 46.5749 12.8731 46.4665 12.8383C46.3581 12.8035 46.2432 12.7944 46.1308 12.8118C45.8252 12.8129 45.5216 12.8603 45.2299 12.9524V16.5909H43.9435L43.9455 12.0633ZM58.8631 13.2348C58.5232 12.9399 58.0883 12.7813 57.6407 12.7887C57.4591 12.7745 57.2766 12.8001 57.1057 12.8637C56.9348 12.9273 56.7794 13.0274 56.6501 13.1572C56.5209 13.287 56.4207 13.4435 56.3565 13.6159C56.2924 13.7884 56.2656 13.9728 56.2782 14.1567C56.2689 14.3454 56.2996 14.5339 56.368 14.7097C56.4365 14.8855 56.5412 15.0444 56.6752 15.176C56.8092 15.3076 56.9694 15.4087 57.145 15.4726C57.3207 15.5366 57.5078 15.5619 57.6939 15.5468C58.1351 15.5454 58.5626 15.392 58.9062 15.112V16.3399C58.483 16.5878 58.0002 16.7122 57.5113 16.6992C57.1762 16.7256 56.8394 16.679 56.5236 16.5625C56.2079 16.4461 55.9204 16.2625 55.6806 16.0242C55.4408 15.7858 55.2543 15.4982 55.1335 15.1808C55.0128 14.8634 54.9607 14.5235 54.9807 14.1839C54.9649 13.8452 55.0193 13.5069 55.1404 13.1908C55.2616 12.8747 55.4468 12.5877 55.6841 12.3483C55.9214 12.1089 56.2055 11.9225 56.5183 11.8009C56.8311 11.6793 57.1655 11.6253 57.5001 11.6424C57.9795 11.6252 58.4534 11.7501 58.8636 12.0017L58.8631 13.2348ZM62.1323 11.6388C62.6266 11.6386 63.1099 11.7868 63.521 12.0645C63.9321 12.3423 64.2526 12.7372 64.4419 13.1993C64.6313 13.6614 64.6809 14.1699 64.5847 14.6606C64.4884 15.1513 64.2505 15.602 63.9011 15.9559C63.5516 16.3097 63.1064 16.5507 62.6216 16.6485C62.1368 16.7462 61.6343 16.6962 61.1775 16.5049C60.7208 16.3136 60.3304 15.9895 60.0556 15.5736C59.7809 15.1577 59.6342 14.6688 59.6341 14.1685C59.6223 13.8332 59.6788 13.499 59.8002 13.1868C59.9215 12.8746 60.1051 12.591 60.3394 12.3536C60.5738 12.1163 60.8539 11.9304 61.1624 11.8074C61.4708 11.6844 61.801 11.627 62.1323 11.6388ZM62.1323 12.7681C61.4364 12.7681 60.9322 13.2994 60.9322 14.1685C60.9649 14.4017 61.0632 14.6205 61.2153 14.7987C61.3675 14.977 61.567 15.1072 61.7903 15.1738C62.0135 15.2404 62.251 15.2407 62.4744 15.1745C62.6977 15.1083 62.8976 14.9785 63.0501 14.8006C63.2026 14.6226 63.3013 14.404 63.3344 14.1709C63.3676 13.9378 63.3338 13.6999 63.237 13.4857C63.1403 13.2714 62.9847 13.0899 62.7888 12.9627C62.593 12.8354 62.3651 12.7679 62.1323 12.7681ZM66.9588 16.5909H65.6719V12.1178C66.264 11.8168 66.9186 11.6635 67.5811 11.6706C67.9179 11.6648 68.2536 11.7094 68.5774 11.8031V13.0613C68.2696 12.9443 67.9422 12.8892 67.6136 12.899C67.3915 12.9005 67.1709 12.9369 66.9598 13.0068L66.9588 16.5909ZM69.4032 12.0407C70.0695 11.7756 70.7791 11.6393 71.495 11.6388C73.0609 11.6388 74.1231 12.5402 74.1231 14.0694C74.1231 15.7527 73.1248 16.6972 71.4626 16.6972C71.2056 16.7031 70.9492 16.6702 70.7017 16.5997V18.5436H69.4042L69.4032 12.0407ZM70.7007 15.4595C70.9152 15.5304 71.1401 15.5638 71.3657 15.5581C71.5591 15.579 71.7547 15.5562 71.9383 15.4913C72.1219 15.4264 72.289 15.321 72.4275 15.1828C72.5659 15.0446 72.6723 14.877 72.739 14.6921C72.8056 14.5072 72.8309 14.3096 72.8129 14.1136C72.8239 13.9349 72.7964 13.756 72.7321 13.5892C72.6679 13.4224 72.5685 13.2718 72.4409 13.1479C72.3133 13.0239 72.1605 12.9296 71.9932 12.8715C71.8259 12.8133 71.6482 12.7928 71.4722 12.8113C71.21 12.8052 70.9487 12.8455 70.7002 12.9303L70.7007 15.4595ZM77.3593 11.6388C77.8536 11.6386 78.3369 11.7868 78.748 12.0645C79.1591 12.3423 79.4796 12.7372 79.6689 13.1993C79.8583 13.6614 79.9079 14.1699 79.8117 14.6606C79.7154 15.1513 79.4775 15.602 79.1281 15.9559C78.7786 16.3097 78.3334 16.5507 77.8486 16.6485C77.3638 16.7462 76.8612 16.6962 76.4045 16.5049C75.9478 16.3136 75.5574 15.9895 75.2826 15.5736C75.0079 15.1577 74.8612 14.6688 74.8611 14.1685C74.8493 13.8332 74.9058 13.499 75.0271 13.1868C75.1485 12.8746 75.3321 12.591 75.5664 12.3536C75.8008 12.1163 76.0809 11.9304 76.3893 11.8074C76.6978 11.6844 77.028 11.627 77.3593 11.6388ZM77.3593 12.7681C76.6629 12.7681 76.1592 13.2994 76.1592 14.1685C76.1349 14.3425 76.1478 14.5198 76.197 14.6884C76.2463 14.8569 76.3307 15.0128 76.4446 15.1455C76.5585 15.2782 76.6992 15.3845 76.8572 15.4575C77.0153 15.5304 77.1869 15.5681 77.3606 15.5681C77.5343 15.5681 77.7059 15.5304 77.8639 15.4575C78.0219 15.3845 78.1627 15.2782 78.2766 15.1455C78.3905 15.0128 78.4749 14.8569 78.5241 14.6884C78.5734 14.5198 78.5863 14.3425 78.562 14.1685C78.562 13.2994 78.0583 12.7681 77.3598 12.7681M82.1852 16.5909H80.8963V12.1178C81.4888 11.8169 82.1438 11.6637 82.8066 11.6706C83.144 11.6647 83.4804 11.7093 83.8049 11.8031V13.0613C83.497 12.9445 83.1697 12.8894 82.8411 12.899C82.6186 12.9006 82.3978 12.937 82.1863 13.0068L82.1852 16.5909ZM86.9691 13.419C86.9691 12.9524 86.582 12.7584 86.1108 12.7584C85.6211 12.7572 85.1411 12.8966 84.7265 13.1603V12.031C85.221 11.763 85.7752 11.6281 86.336 11.6393C87.4297 11.6393 88.2453 12.0741 88.2453 13.3667V16.4908C87.6528 16.6185 87.0489 16.6845 86.4431 16.688C85.2307 16.688 84.2974 16.3184 84.2974 15.1993C84.2974 14.1901 85.1019 13.7106 86.4431 13.7106H86.9681L86.9691 13.419ZM86.9691 14.5484H86.5394C85.9384 14.5484 85.5848 14.7214 85.5848 15.1331C85.5848 15.5448 85.917 15.7311 86.4319 15.7311C86.6124 15.7328 86.7925 15.7146 86.9691 15.6767V14.5484ZM88.8865 11.7482H89.6057V10.5531H90.8931V11.7482H92.2561V12.8323H90.8931V14.7763C90.8931 15.3292 91.1503 15.5037 91.5368 15.5037C91.8499 15.5004 92.1554 15.4056 92.4164 15.2306V16.4256C92.0334 16.6172 91.6097 16.7101 91.1828 16.6962C90.9717 16.721 90.7578 16.6976 90.5568 16.6276C90.3558 16.5577 90.1729 16.443 90.0216 16.292C89.8703 16.141 89.7543 15.9576 89.6824 15.7552C89.6104 15.5529 89.5842 15.3368 89.6057 15.1228V12.8323H88.887L88.8865 11.7482ZM96.973 14.5258V14.5484C97.0445 14.863 97.2264 15.1408 97.4848 15.3301C97.7433 15.5195 98.0608 15.6076 98.3785 15.5781C98.9414 15.5905 99.496 15.4397 99.9769 15.1433V16.2521C99.457 16.5693 98.8561 16.7238 98.2497 16.6962C96.695 16.6962 95.718 15.7311 95.718 14.2224C95.718 12.6265 96.7163 11.6378 98.0564 11.6378C99.5472 11.6378 100.126 12.6378 100.126 13.918V14.5253L96.973 14.5258ZM98.9259 13.7445C98.9147 13.1465 98.6357 12.7137 98.024 12.7137C97.466 12.7137 97.1018 13.1136 96.9841 13.7445H98.9259ZM101.048 15.1012C101.491 15.4311 102.021 15.62 102.57 15.6438C102.967 15.6438 103.234 15.5258 103.234 15.2203C103.234 14.9267 103.031 14.8097 102.505 14.7003C101.422 14.5042 100.97 14.0684 100.97 13.1906C100.97 12.128 101.764 11.6378 102.796 11.6378C103.289 11.6234 103.775 11.7478 104.202 11.9971V13.1573C103.806 12.8623 103.33 12.6992 102.839 12.6906C102.412 12.6906 102.231 12.8754 102.231 13.1013C102.231 13.3503 102.402 13.4806 102.852 13.5905C104.087 13.8169 104.504 14.2948 104.504 15.1628C104.504 16.2152 103.721 16.6931 102.606 16.6931C102.062 16.7064 101.525 16.5715 101.05 16.3024L101.048 15.1012ZM45.8005 0.765895H45.0437V0H45.8005V0.765895ZM53.2697 6.2945H52.6443V1.70273H53.2697V6.2945ZM53.3347 0.765895H52.5768V0H53.3336L53.3347 0.765895ZM42.5638 11.011H41.25V9.68096H42.5638V11.011ZM94.6782 16.5909H93.3898V11.7476H94.6782V16.5909ZM94.6904 11.011H93.3786V9.68096H94.6904V11.011ZM49.6318 1.59698C48.0355 1.59698 47.0113 2.49531 47.0113 3.98706C47.0113 5.56248 48.0547 6.35456 49.5476 6.35456C49.8722 6.36138 50.194 6.29234 50.488 6.15282V6.20414C50.488 7.36838 49.9518 7.73696 48.9353 7.73696H47.6839V8.28059H49.1367C50.2526 8.28059 51.1149 7.72875 51.1149 6.32427V1.89523C50.6414 1.70718 50.1384 1.60668 49.6297 1.59852M50.488 5.61638C50.1889 5.737 49.8695 5.7975 49.5476 5.79451C48.3667 5.79451 47.6358 5.09689 47.6358 3.98809C47.6358 2.85568 48.3667 2.18116 49.6302 2.18116C49.9217 2.17986 50.2116 2.22614 50.4885 2.31822L50.488 5.61638ZM62.3915 1.59852C60.7922 1.59852 59.768 2.49686 59.768 3.9886C59.768 5.56402 60.8135 6.35609 62.3068 6.35609C62.6314 6.36278 62.9532 6.29375 63.2472 6.15435V6.20569C63.2472 7.36993 62.7121 7.73851 61.6961 7.73851H60.4437V8.28059H61.8965C63.0124 8.28059 63.8747 7.72875 63.8747 6.32427V1.89523C63.4024 1.70733 62.9005 1.60683 62.393 1.59852M63.2493 5.61638C62.9503 5.73725 62.6308 5.79776 62.3088 5.79451C61.128 5.79451 60.397 5.09689 60.397 3.98809C60.397 2.85568 61.128 2.18116 62.3935 2.18116C62.6844 2.18018 62.9735 2.22646 63.2498 2.31822L63.2493 5.61638ZM50.0913 17.5524V18.6468H51.5831C52.7158 18.6468 53.9839 18.171 53.9839 16.5103V12.0089C53.3667 11.7613 52.7082 11.6356 52.0442 11.6388C50.3703 11.6388 49.3523 12.571 49.3523 14.1136C49.3523 15.6962 50.3607 16.5432 51.8089 16.5432C52.1098 16.5515 52.409 16.4959 52.6874 16.3799V16.4795C52.6874 17.2162 52.2517 17.5514 51.5121 17.5514L50.0913 17.5524ZM52.6869 15.3061C52.4538 15.3953 52.2072 15.4432 51.958 15.4477C51.7848 15.442 51.6144 15.4018 51.4566 15.3295C51.2987 15.2571 51.1565 15.154 51.0381 15.026C50.7988 14.7675 50.6708 14.4234 50.6823 14.0694C50.6937 13.7155 50.8436 13.3806 51.099 13.1385C51.3545 12.8964 51.6944 12.7668 52.0442 12.7784C52.2619 12.7794 52.4783 12.8117 52.6869 12.8744V15.3061Z" fill="white"/>
</g>
<defs>
<clipPath id="clip0_137_1007">
<rect width="104" height="77" fill="white" transform="translate(0.5)"/>
</clipPath>
</defs>
</svg>
