<svg width="137" height="37" viewBox="0 0 137 37" fill="none" xmlns="http://www.w3.org/2000/svg">
<g clip-path="url(#clip0_137_968)">
<path d="M14.9475 6.55283C15.1342 6.59952 15.6172 6.09317 16.3894 5.78646C17.1616 5.47975 18.541 5.25515 18.2662 6.16159C17.7024 6.20464 17.1552 6.3732 16.6642 6.65507C16.1162 7.06401 15.01 8.36089 13.7524 8.7803C12.8808 9.07091 11.3877 8.84148 11.3877 9.21984C11.3877 9.65937 13.3062 9.63925 14.0968 9.41385C14.858 9.17638 15.5639 8.78735 16.1723 8.26992C17.0216 8.815 18.0193 9.07959 19.0256 9.02663C21.9174 9.02663 24.4559 5.13762 30.5166 5.13762C36.0365 5.13762 38.3836 8.67404 38.3836 10.8403C38.3836 13.6104 36.3281 15.5899 34.5017 17.0164C32.6754 18.4429 16.3766 30.2564 16.3766 30.2564V37.0008L35.0088 23.0661C36.2005 22.2769 37.348 21.4223 38.4461 20.5061C40.854 18.5741 44.1006 15.1584 44.1006 10.9458C44.1006 5.94183 39.5547 0.00244141 29.7724 0.00244141C23.4594 0.00244141 19.809 1.05459 17.5277 2.1961C16.9317 2.45446 16.3929 2.82956 15.9427 3.29949C15.4926 3.76943 15.1401 4.32479 14.9059 4.93314C14.6728 5.61338 14.7032 6.49165 14.9475 6.55283Z" fill="white"/>
<path d="M16.5401 19.7727C12.6244 19.7946 8.81393 18.4999 5.71482 16.0946C4.71188 15.3186 3.74936 14.4913 2.83108 13.6159L0.508057 12.5098V11.7048H32.5802V12.5098L30.2571 13.6159C29.3388 14.4913 28.3763 15.3186 27.3734 16.0946C24.2721 18.5016 20.4585 19.7964 16.5401 19.7727Z" fill="white"/>
<path d="M52.035 28.3019V13.6378L49.6959 12.5542V11.6904H58.8278V12.5542L56.4904 13.6378V28.3019L58.8294 29.3854V30.2508H49.6975V29.3854L52.035 28.3019ZM66.6251 13.6378L61.0563 19.2431L67.4029 28.3019L69.7708 29.3854V30.2508H63.453L56.9117 20.742L63.8175 13.5242L62.1433 12.5542V11.6904H69.0787V12.5542L66.6251 13.6378Z" fill="white"/>
<path d="M76.9561 16.6718V28.3003L79.1863 29.3854V30.2508H72.3822V29.3854L74.7236 28.3003V13.6394L72.3822 12.5534V11.6904H78.1841L87.4354 23.5145V13.6394L85.2069 12.5534V11.6904H92.0077V12.5542L89.6382 13.6394V30.5277H87.6877L76.9561 16.6718Z" fill="white"/>
<path d="M106.468 23.9596L111.43 11.6904H118.006V12.5542L115.664 13.6394V28.3003L118.006 29.3854V30.2508H109.281V29.3854L111.486 28.3003V16.3627L105.575 30.3901H104.849L98.9408 16.3627V28.3003L101.171 29.3854V30.2508H94.3733V29.3854L96.7131 28.3003V13.6394L94.3733 12.5542V11.6904H101.201L106.468 23.9596Z" fill="white"/>
<path d="M127.357 22.4857V28.3003L129.701 29.3854V30.2508H120.555V29.3854L122.899 28.3003V13.6394L120.555 12.5542V11.6904H128.671C131.482 11.6904 133.097 11.9979 134.325 12.7756C135.002 13.231 135.554 13.8484 135.934 14.5722C136.313 15.296 136.508 16.1033 136.499 16.9214C136.499 20.2598 133.516 22.4857 129.086 22.4857H127.357ZM127.357 21.1228H128.029C130.616 21.1228 131.926 19.7317 131.926 16.9753C131.926 14.3317 130.787 13.0815 128.42 13.0815H127.357V21.1228Z" fill="white"/>
</g>
<defs>
<clipPath id="clip0_137_968">
<rect width="136" height="37" fill="white" transform="translate(0.5)"/>
</clipPath>
</defs>
</svg>
