<svg width="220" height="33" viewBox="0 0 220 33" fill="none" xmlns="http://www.w3.org/2000/svg">
<g clip-path="url(#clip0_137_980)">
<path d="M50.5014 23.8344L49.5592 17.4319C49.3614 16.1736 49.2389 15.167 49.14 14.233H49.0929C48.9186 15.0896 48.6971 16.0478 48.3815 17.0786L46.3181 23.8054H43.8402L41.8475 17.5819C41.4758 16.4793 41.1968 15.3459 41.0137 14.1943H40.9619C40.8912 15.38 40.7404 16.435 40.5944 17.5819L39.8595 23.7812H37.3109L39.3225 10.3809H42.2621L44.4479 17.2577C44.7509 18.1793 44.9887 19.1222 45.1593 20.0791H45.2064C45.3874 19.1381 45.633 18.2115 45.9413 17.3061L48.1742 10.3809H51.0903L53.1254 23.7812H50.5014V23.8344Z" fill="white"/>
<path d="M60.3283 23.8344C60.3214 23.2777 60.3544 22.7213 60.4273 22.1696L60.399 22.1454C60.1236 22.7327 59.687 23.2244 59.1428 23.5598C58.5987 23.8952 57.9709 24.0596 57.3369 24.0328C55.5939 24.0328 54.5905 23.0262 54.5905 21.4389C54.5905 19.0724 56.8705 17.8384 60.1305 17.8384V17.306C60.1305 16.2752 59.6594 15.7429 58.2461 15.7429C57.2572 15.7734 56.2891 16.042 55.4196 16.5269L55.1982 14.4121C56.3024 14.0164 57.4629 13.812 58.6324 13.8071C61.7227 13.8071 62.5801 15.0896 62.5801 17.2334V21.3373C62.5801 22.1454 62.6037 23.0746 62.6272 23.8828H60.3283V23.8344ZM60.1305 19.4789C57.5301 19.4789 56.9412 20.2581 56.9412 21.0421C56.9374 21.1909 56.9649 21.3389 57.0219 21.4759C57.0788 21.6129 57.1638 21.7356 57.2711 21.8357C57.3785 21.9359 57.5055 22.0111 57.6437 22.0561C57.7819 22.1012 57.9279 22.1152 58.0718 22.0971C59.2966 22.0971 60.1305 20.9162 60.1305 19.7064V19.4789Z" fill="white"/>
<path d="M70.3437 23.8344C70.3367 23.2777 70.3698 22.7213 70.4426 22.1696L70.4144 22.1454C70.139 22.7327 69.7023 23.2244 69.1582 23.5598C68.6141 23.8952 67.9863 24.0596 67.3523 24.0328C65.6093 24.0328 64.6058 23.0262 64.6058 21.4389C64.6058 19.0724 66.8859 17.8384 70.1458 17.8384V17.306C70.1458 16.2752 69.6748 15.7429 68.2615 15.7429C67.2726 15.7734 66.3044 16.042 65.4349 16.5269L65.2135 14.4121C66.3179 14.0168 67.4784 13.8124 68.6478 13.8071C71.7381 13.8071 72.5955 15.0896 72.5955 17.2334V21.3373C72.5955 22.1454 72.5955 23.0746 72.6426 23.8828H70.339V23.8344H70.3437ZM70.1458 19.4789C67.5501 19.4789 66.9613 20.2581 66.9613 21.0421C66.9568 21.1907 66.9837 21.3386 67.0401 21.4756C67.0965 21.6126 67.181 21.7354 67.288 21.8356C67.395 21.9358 67.5218 22.0111 67.6597 22.0562C67.7977 22.1013 67.9435 22.1153 68.0872 22.0971C69.312 22.0971 70.1223 20.9162 70.1223 19.7064V19.4789H70.1458Z" fill="white"/>
<path d="M76.9908 24.0328C76.3169 24.0286 75.6443 23.9703 74.9792 23.8586L75.0263 21.768C75.6985 21.9518 76.3896 22.0525 77.085 22.068C78.0272 22.068 78.6584 21.6664 78.6584 21.013C78.6584 19.2708 74.7814 20.2532 74.7814 16.9044C74.7814 15.167 76.157 13.7539 78.8516 13.7539C79.4442 13.7643 80.035 13.8242 80.6182 13.933L80.5428 15.9704C79.9684 15.8096 79.3763 15.725 78.7809 15.7187C77.8387 15.7187 77.3677 16.1204 77.3677 16.7253C77.3677 18.3417 81.3154 17.6109 81.3154 20.8098C81.2918 22.7455 79.6242 24.057 77.0002 24.057" fill="white"/>
<path d="M86.6763 24.0327C84.5423 24.0327 83.9063 23.2294 83.9063 20.9355V15.9702H82.2386V13.9812H83.8828V10.9324L86.3607 10.2549V13.957H88.6926V15.9218H86.3607V20.2773C86.3607 21.5404 86.6575 21.9179 87.4913 21.9179C87.8963 21.9202 88.2999 21.8698 88.6926 21.7679V23.8053C88.034 23.9698 87.3588 24.0543 86.681 24.0569" fill="white"/>
<path d="M95.9239 16.2751C94.1573 15.8976 93.2481 17.0832 93.2481 19.8272V23.8584H90.7701V14.0054H93.102C93.096 14.6735 93.0393 15.3401 92.9324 15.9992H92.9796C93.4506 14.7361 94.3928 13.6569 96.0181 13.8069L95.9239 16.2751Z" fill="white"/>
<path d="M98.9577 12.7229C98.7542 12.7346 98.5505 12.7036 98.3591 12.6317C98.1677 12.5598 97.9926 12.4485 97.8445 12.3047C97.6964 12.1608 97.5784 11.9875 97.4978 11.7952C97.4172 11.6029 97.3756 11.3958 97.3756 11.1864C97.3756 10.977 97.4172 10.7699 97.4978 10.5776C97.5784 10.3853 97.6964 10.212 97.8445 10.0681C97.9926 9.92429 98.1677 9.81301 98.3591 9.7411C98.5505 9.66918 98.7542 9.63815 98.9577 9.64988C99.3601 9.64468 99.7482 9.80295 100.038 10.0903C100.327 10.3776 100.494 10.7707 100.503 11.184C100.491 11.5965 100.322 11.9879 100.034 12.2752C99.7455 12.5625 99.3594 12.7231 98.9577 12.7229ZM97.7093 13.9812H100.182V23.8342H97.7093V13.9812Z" fill="white"/>
<path d="M106.589 24.0328C103.918 24.0328 102.274 22.581 102.274 19.2466C102.274 16.1736 103.843 13.8071 107.23 13.8071C107.892 13.8099 108.551 13.9027 109.19 14.083L108.945 16.2752C108.389 16.0509 107.799 15.9312 107.202 15.922C105.633 15.922 104.846 17.1028 104.846 18.9708C104.846 20.6597 105.482 21.8164 107.126 21.8164C107.778 21.8225 108.422 21.6769 109.011 21.3905L109.204 23.5537C108.366 23.8817 107.476 24.0458 106.58 24.0377" fill="white"/>
<path d="M117.109 23.8342V17.543C117.109 16.5122 116.84 15.9072 115.936 15.9072C114.683 15.9072 113.703 17.3591 113.703 19.1061V23.8584H111.206V9.37402H113.684V13.6037C113.689 14.2803 113.633 14.956 113.514 15.6217H113.562C113.863 15.0427 114.317 14.5628 114.872 14.2375C115.427 13.9121 116.06 13.7545 116.699 13.7827C118.857 13.7827 119.568 15.2346 119.568 16.9332V23.8826H117.095V23.8342H117.109Z" fill="white"/>
<path d="M125.447 24.0327C123.318 24.0327 122.677 23.2294 122.677 20.9355V15.9702H121.009V13.9812H122.653V10.9324L125.131 10.2549V13.957H127.459V15.9218H125.131V20.2773C125.131 21.5404 125.424 21.9179 126.257 21.9179C126.662 21.9205 127.066 21.8701 127.459 21.7679V23.8053C126.8 23.9698 126.125 24.0543 125.447 24.0569" fill="white"/>
<path d="M139.255 24.057C135.137 24.057 134.205 21.768 134.205 19.2176V10.4534H136.73V19.0434C136.73 20.7323 137.267 21.918 139.429 21.918C141.365 21.918 142.175 21.0856 142.175 18.7917V10.4292H144.677V18.6175C144.677 22.3197 142.712 24.057 139.255 24.057Z" fill="white"/>
<path d="M153.039 23.8343V17.543C153.039 16.5122 152.77 15.9073 151.861 15.9073C150.613 15.9073 149.628 17.3591 149.628 19.1062V23.8585H147.155V14.0054H149.482C149.477 14.5866 149.436 15.1669 149.359 15.7428L149.383 15.7718C149.687 15.1525 150.157 14.6358 150.738 14.2832C151.32 13.9306 151.987 13.7569 152.662 13.7828C154.819 13.7828 155.531 15.2346 155.531 16.9284V23.8585H153.039V23.8343Z" fill="white"/>
<path d="M159.342 12.7231C159.048 12.7136 158.763 12.6153 158.523 12.4406C158.283 12.2658 158.098 12.0222 157.992 11.7403C157.886 11.4584 157.863 11.1506 157.926 10.8554C157.989 10.5601 158.135 10.2904 158.346 10.08C158.558 9.86962 158.824 9.72778 159.114 9.67222C159.403 9.61666 159.702 9.64983 159.973 9.76759C160.244 9.88536 160.475 10.0825 160.638 10.3344C160.8 10.5863 160.887 10.8819 160.887 11.1842C160.878 11.5979 160.711 11.9915 160.422 12.2796C160.133 12.5677 159.745 12.727 159.342 12.7231ZM158.112 13.9814H160.59V23.8344H158.112V13.9814Z" fill="white"/>
<path d="M168.264 23.834H165.768L162.211 13.981H164.91L166.432 18.4139C166.653 19.0962 166.903 19.8657 167.072 20.6061H167.12C167.267 19.8958 167.464 19.1972 167.708 18.5155L169.254 13.981H171.878L168.264 23.834Z" fill="white"/>
<path d="M181.069 19.3239H175.109C175.109 21.1628 175.967 22.0678 177.757 22.0678C178.72 22.0616 179.671 21.8559 180.555 21.4629L180.776 23.4277C179.681 23.861 178.516 24.0761 177.342 24.0616C174.299 24.0616 172.584 22.4985 172.584 19.019C172.584 15.9992 174.2 13.7827 177.097 13.7827C179.891 13.7827 181.144 15.7475 181.144 18.1914C181.139 18.57 181.114 18.9481 181.069 19.3239ZM177.022 15.6217C175.99 15.6217 175.284 16.4008 175.138 17.5865H178.671C178.718 16.3476 178.058 15.6217 177.003 15.6217" fill="white"/>
<path d="M188.328 16.2751C186.58 15.8976 185.638 17.0832 185.638 19.8417V23.8584H183.16V14.0054H185.487C185.484 14.6736 185.427 15.3404 185.318 15.9992H185.365C185.836 14.7361 186.778 13.6569 188.408 13.8069L188.328 16.2751Z" fill="white"/>
<path d="M191.762 24.0328C191.088 24.0286 190.416 23.9703 189.751 23.8586L189.798 21.768C190.47 21.9518 191.161 22.0525 191.856 22.068C192.799 22.068 193.425 21.6664 193.425 21.013C193.425 19.2708 189.553 20.2532 189.553 16.9044C189.553 15.167 190.924 13.7539 193.623 13.7539C194.216 13.7643 194.806 13.8242 195.39 13.933L195.291 15.9704C194.716 15.8099 194.124 15.7253 193.529 15.7187C192.587 15.7187 192.116 16.1204 192.116 16.7253C192.116 18.3417 196.063 17.6109 196.063 20.8098C196.035 22.7455 194.372 24.057 191.748 24.057" fill="white"/>
<path d="M199.3 12.7231C199.006 12.7136 198.721 12.6153 198.481 12.4406C198.241 12.2658 198.056 12.0222 197.95 11.7403C197.844 11.4584 197.82 11.1506 197.884 10.8554C197.947 10.5601 198.093 10.2904 198.304 10.08C198.515 9.86962 198.782 9.72778 199.071 9.67222C199.361 9.61666 199.659 9.64983 199.93 9.76759C200.201 9.88536 200.433 10.0825 200.595 10.3344C200.758 10.5863 200.845 10.8819 200.845 11.1842C200.836 11.5979 200.669 11.9915 200.38 12.2796C200.091 12.5677 199.703 12.727 199.3 12.7231ZM198.075 13.9814H200.553V23.8344H198.075V13.9814Z" fill="white"/>
<path d="M206.917 24.0327C204.783 24.0327 204.147 23.2294 204.147 20.9355V15.9702H202.479V13.9812H204.119V10.9324L206.597 10.2549V13.957H208.929V15.9218H206.597V20.2773C206.597 21.5404 206.894 21.9179 207.727 21.9179C208.132 21.9202 208.536 21.8698 208.929 21.7679V23.8053C208.27 23.9698 207.595 24.0543 206.917 24.0569" fill="white"/>
<path d="M215.524 24.7633C214.398 27.8363 213.39 28.7704 211.185 28.7704C210.731 28.7721 210.277 28.7217 209.833 28.6203L209.984 26.4281C210.41 26.5787 210.857 26.6556 211.308 26.6555C212.118 26.6555 212.655 26.2781 213.169 24.8165L213.489 23.8487L209.956 13.9956H212.707L214.002 17.7752C214.299 18.6318 214.544 19.59 214.766 20.4998H214.789C215.011 19.6142 215.402 18.3075 215.731 17.3735L216.848 14.0343H219.5L215.524 24.7633Z" fill="white"/>
<path d="M2.12524 3.39746V16.1009L17.789 10.3807L2.12524 3.39746Z" fill="white"/>
<path d="M0.5 0V19.5755L20.1444 10.3806L0.5 0ZM6.26142 13.6278C4.61732 13.6278 3.43489 12.8729 3.43489 10.9564C3.43489 9.37395 3.43489 8.05279 3.482 6.72679H5.21089C5.18734 8.08667 5.18734 9.44655 5.18734 10.8306C5.18734 11.8421 5.55479 12.2437 6.2944 12.2437C6.83144 12.2437 7.4203 11.9921 7.4203 10.7919L7.43915 6.77519H9.15862L9.13507 11.0339C9.1068 12.747 7.95263 13.652 6.26142 13.652" fill="white"/>
<path d="M23.3808 31.2238L6.24731 23.834L23.3808 15.0117" fill="white"/>
<path d="M4.66919 23.834L24.3136 32.9998V13.4292L4.66919 23.834ZM21.2704 26.6166L20.559 21.7772L19.386 26.6166H17.4216L16.3428 21.7772H16.3192L15.3771 26.5876H13.6906L15.2593 19.8608H17.3933L18.3355 24.7728H18.4014L19.5792 19.8608H21.6991L22.9899 26.6166H21.2704Z" fill="white"/>
</g>
<defs>
<clipPath id="clip0_137_980">
<rect width="219" height="33" fill="white" transform="translate(0.5)"/>
</clipPath>
</defs>
</svg>
